<?xml version="1.0" encoding="UTF-8" standalone="no"?>
<!-- Created with Inkscape (http://www.inkscape.org/) -->

<svg
   xmlns:dc="http://purl.org/dc/elements/1.1/"
   xmlns:cc="http://creativecommons.org/ns#"
   xmlns:rdf="http://www.w3.org/1999/02/22-rdf-syntax-ns#"
   xmlns:svg="http://www.w3.org/2000/svg"
   xmlns="http://www.w3.org/2000/svg"
   xmlns:sodipodi="http://sodipodi.sourceforge.net/DTD/sodipodi-0.dtd"
   xmlns:inkscape="http://www.inkscape.org/namespaces/inkscape"
   width="297mm"
   height="210mm"
   viewBox="0 0 297 210"
   version="1.1"
   id="svg4703"
   inkscape:version="0.92.1 r15371"
   sodipodi:docname="arrowsedgelogo-businesscards.svg"
   inkscape:export-filename="C:\Users\Cody DeBos\Desktop\Websites\arrowsedge\images\arrowsedgelogo-businesscards.png"
   inkscape:export-xdpi="96"
   inkscape:export-ydpi="96">
  <defs
     id="defs4697" />
  <sodipodi:namedview
     id="base"
     pagecolor="#ffffff"
     bordercolor="#666666"
     borderopacity="1.0"
     inkscape:pageopacity="0.0"
     inkscape:pageshadow="2"
     inkscape:zoom="1.4"
     inkscape:cx="543.22431"
     inkscape:cy="375.49038"
     inkscape:document-units="mm"
     inkscape:current-layer="layer1"
     showgrid="false"
     inkscape:window-width="2736"
     inkscape:window-height="1683"
     inkscape:window-x="-14"
     inkscape:window-y="-14"
     inkscape:window-maximized="1" />
  <metadata
     id="metadata4700">
    <rdf:RDF>
      <cc:Work
         rdf:about="">
        <dc:format>image/svg+xml</dc:format>
        <dc:type
           rdf:resource="http://purl.org/dc/dcmitype/StillImage" />
        <dc:title></dc:title>
      </cc:Work>
    </rdf:RDF>
  </metadata>
  <g
     inkscape:label="Layer 1"
     inkscape:groupmode="layer"
     id="layer1"
     transform="translate(0,-87)">
    <g
       transform="translate(0.94543339,-2.0140013)"
       id="g4649">
      <path
         inkscape:connector-curvature="0"
         style="opacity:1;fill:#a6a6a6;fill-opacity:1;stroke:none;stroke-width:5.69360065;stroke-linecap:round;stroke-linejoin:round;stroke-miterlimit:4;stroke-dasharray:none;stroke-opacity:1"
         d="m 67.328666,119.14319 -17.402218,30.01789 -0.01927,-0.003 -48.8736129,81.50399 12.3127919,0.10786 0.0043,-0.008 11.644803,0.10223 5.652296,-10.65182 -11.192569,-0.14372 37.015828,-64.85409 4.321859,7.59955 0.01793,-0.0107 32.669063,58.33746 -10.180211,-0.1397 3.750666,10.3517 12.171748,0.0415 0.01071,0.0214 30.38715,-0.0969 -46.114545,-82.46517 -0.008,0.005 z"
         id="path4565-6" />
      <path
         id="path4565-8-0"
         d="m 56.00473,189.99325 -24.975491,35.79052 -0.09126,-0.001 0.01793,0.10517 -0.01793,0.0268 h 0.02221 l 2.259815,13.28226 12.778859,-0.008 v 15.18941 h 18.850203 v -15.20325 l 12.618447,-0.008 2.413314,-12.67927 h 0.02917 l -0.02141,-0.0345 0.02141,-0.11749 -0.100895,-0.001 z"
         style="opacity:1;fill:#a6a6a6;fill-opacity:1;stroke:none;stroke-width:7.33667421;stroke-linecap:round;stroke-linejoin:round;stroke-miterlimit:4;stroke-dasharray:none;stroke-opacity:1"
         inkscape:connector-curvature="0" />
      <g
         transform="matrix(2.6762563,0,0,2.6762563,-190.79319,-262.07592)"
         id="g1564">
        <path
           inkscape:connector-curvature="0"
           style="opacity:1;fill:#a5a7a4;fill-opacity:1;stroke:none;stroke-width:2.31157732;stroke-linecap:round;stroke-linejoin:round;stroke-miterlimit:4;stroke-dasharray:none;stroke-opacity:1;paint-order:stroke fill markers"
           d="m 116.86757,173.19347 h 61.1849 v 0.52917 h -61.1849 z"
           id="rect1262" />
        <g
           aria-label="Arrow's Edge"
           style="font-style:normal;font-variant:normal;font-weight:normal;font-stretch:normal;font-size:11.98761082px;line-height:1.25;font-family:'Kristen ITC';-inkscape-font-specification:'Kristen ITC';letter-spacing:0.01498451px;word-spacing:0px;writing-mode:lr-tb;fill:#000000;fill-opacity:1;stroke:none;stroke-width:0.29969028"
           id="text1439"
           transform="matrix(0.96547758,0,0,0.96547758,6.0525101,9.9071355)">
          <path
             d="m 116.79575,160.71185 -1.42821,-3.92758 -1.42821,3.92758 z m 0.19316,0.5268 h -3.24274 l -1.3053,3.58809 h -0.56192 l 3.48859,-9.5819 3.48273,9.5819 h -0.55607 z"
             style="font-style:normal;font-variant:normal;font-weight:normal;font-stretch:normal;font-family:'Caviar Dreams';-inkscape-font-specification:'Caviar Dreams';fill:#a5a7a4;fill-opacity:1;stroke-width:0.29969028"
             id="path1491"
             inkscape:connector-curvature="0" />
          <path
             d="m 120.04177,159.07877 h 0.5268 v 1.04775 q 0.16389,-0.23414 0.38046,-0.45071 0.69655,-0.69655 1.42822,-0.73167 v 0.57363 q -0.49754,0.0234 -1.03019,0.55607 -0.74923,0.74337 -0.77849,1.78526 v 2.96764 h -0.5268 z"
             style="font-style:normal;font-variant:normal;font-weight:normal;font-stretch:normal;font-family:'Caviar Dreams';-inkscape-font-specification:'Caviar Dreams';fill:#a5a7a4;fill-opacity:1;stroke-width:0.29969028"
             id="path1493"
             inkscape:connector-curvature="0" />
          <path
             d="m 123.56875,159.07877 h 0.5268 v 1.04775 q 0.16389,-0.23414 0.38046,-0.45071 0.69655,-0.69655 1.42821,-0.73167 v 0.57363 q -0.49753,0.0234 -1.03018,0.55607 -0.74923,0.74337 -0.77849,1.78526 v 2.96764 h -0.5268 z"
             style="font-style:normal;font-variant:normal;font-weight:normal;font-stretch:normal;font-family:'Caviar Dreams';-inkscape-font-specification:'Caviar Dreams';fill:#a5a7a4;fill-opacity:1;stroke-width:0.29969028"
             id="path1495"
             inkscape:connector-curvature="0" />
          <path
             d="m 129.85264,158.55782 q 1.33456,0 2.27109,0.94239 0.94239,0.94239 0.94239,2.27694 0,1.32871 -0.94239,2.27109 -0.93653,0.94239 -2.27109,0.94239 -1.3287,0 -2.27109,-0.94239 -0.94238,-0.94238 -0.94238,-2.27109 0,-1.33455 0.94238,-2.27694 0.94239,-0.94239 2.27109,-0.94239 z m 0,0.56192 q -1.10042,0 -1.87891,0.7785 -0.7785,0.77849 -0.7785,1.87891 0,1.10043 0.7785,1.87892 0.77849,0.77264 1.87891,0.77264 1.10043,0 1.87892,-0.77264 0.77849,-0.77849 0.77849,-1.87892 0,-1.10042 -0.77849,-1.87891 -0.77849,-0.7785 -1.87892,-0.7785 z"
             style="font-style:normal;font-variant:normal;font-weight:normal;font-stretch:normal;font-family:'Caviar Dreams';-inkscape-font-specification:'Caviar Dreams';fill:#a5a7a4;fill-opacity:1;stroke-width:0.29969028"
             id="path1497"
             inkscape:connector-curvature="0" />
          <path
             d="m 137.23697,163.30487 v -4.2261 h 0.5268 v 4.09733 q 0,0.51509 0.34534,0.86044 0.3512,0.34534 0.83703,0.34534 0.48582,0 0.83702,-0.34534 0.32194,-0.32194 0.34535,-0.77849 h -0.006 v -4.17928 h 0.5268 v 4.17928 q -0.0234,0.67313 -0.49754,1.14725 -0.49753,0.50338 -1.20578,0.50338 -0.70825,0 -1.20579,-0.50338 -0.13462,-0.13463 -0.23413,-0.28096 -0.0995,0.14633 -0.23999,0.28096 -0.49753,0.50338 -1.20578,0.50338 -0.70825,0 -1.20579,-0.50338 -0.47412,-0.47412 -0.49753,-1.14725 v -4.17928 h 0.5268 v 4.17928 h -0.006 q 0.0234,0.45655 0.3512,0.77849 0.34534,0.34534 0.83117,0.34534 0.48582,0 0.83702,-0.34534 0.29852,-0.29852 0.3395,-0.73167 z"
             style="font-style:normal;font-variant:normal;font-weight:normal;font-stretch:normal;font-family:'Caviar Dreams';-inkscape-font-specification:'Caviar Dreams';fill:#a5a7a4;fill-opacity:1;stroke-width:0.29969028"
             id="path1499"
             inkscape:connector-curvature="0" />
          <path
             d="m 142.29166,158.99097 v -3.51199 h 0.5268 v 3.51199 z"
             style="font-style:normal;font-variant:normal;font-weight:normal;font-stretch:normal;font-family:'Caviar Dreams';-inkscape-font-specification:'Caviar Dreams';fill:#a5a7a4;fill-opacity:1;stroke-width:0.29969028"
             id="path1501"
             inkscape:connector-curvature="0" />
          <path
             d="m 146.02351,161.87081 q -0.67313,-0.36291 -0.93068,-0.62046 -0.40388,-0.40387 -0.40388,-0.97165 0,-0.57362 0.40388,-0.9775 0.40388,-0.40974 0.97165,-0.40974 0.57363,0 0.94824,0.37462 0.36291,0.36876 0.36291,0.83702 v 0.0293 l -0.45656,0.18145 q -0.0585,-0.44485 -0.28096,-0.66728 -0.21657,-0.22242 -0.57363,-0.22242 -0.3512,0 -0.60289,0.25169 -0.25169,0.24584 -0.25169,0.60289 0,0.3512 0.25169,0.60289 0.14633,0.14634 0.62045,0.44486 0.74923,0.40973 1.06531,0.72581 0.49753,0.50339 0.49753,1.19993 0,0.71411 -0.49753,1.21749 -0.49753,0.49754 -1.20579,0.49754 -0.70825,0 -1.20578,-0.49754 -0.49753,-0.50338 -0.49753,-1.10042 l 0.52094,-0.13463 q 0,0.51509 0.34535,0.86044 0.3512,0.34535 0.83702,0.34535 0.48583,0 0.83118,-0.34535 0.3512,-0.34535 0.3512,-0.84288 0,-0.48582 -0.34535,-0.83117 -0.18731,-0.18731 -0.75508,-0.55021 z"
             style="font-style:normal;font-variant:normal;font-weight:normal;font-stretch:normal;font-family:'Caviar Dreams';-inkscape-font-specification:'Caviar Dreams';fill:#a5a7a4;fill-opacity:1;stroke-width:0.29969028"
             id="path1503"
             inkscape:connector-curvature="0" />
          <path
             d="m 157.98256,155.46142 v 0.52679 h -4.15586 v 3.89247 h 4.15586 v 0.5268 h -4.15586 v 3.89246 h 4.15586 v 0.5268 h -4.68266 v -9.36532 z"
             style="font-style:normal;font-variant:normal;font-weight:normal;font-stretch:normal;font-family:'Caviar Dreams';-inkscape-font-specification:'Caviar Dreams';fill:#a5a7a4;fill-opacity:1;stroke-width:0.29969028"
             id="path1505"
             inkscape:connector-curvature="0" />
          <path
             d="m 165.79417,164.82674 h -0.5268 v -1.17067 q -0.15218,0.20487 -0.33364,0.39217 -0.94238,0.94239 -2.27694,0.94239 -1.32871,0 -2.27109,-0.94239 -0.94239,-0.94238 -0.94239,-2.27109 0,-1.33455 0.94239,-2.27694 0.94238,-0.94239 2.27109,-0.94239 1.33456,0 2.27694,0.94239 0.18146,0.18731 0.33364,0.39217 v -4.43096 h 0.5268 z m -0.5268,-2.52864 v -1.04189 q -0.14633,-0.77264 -0.73166,-1.35797 -0.7785,-0.7785 -1.87892,-0.7785 -1.10043,0 -1.87892,0.7785 -0.77849,0.77849 -0.77849,1.87891 0,1.10043 0.77849,1.87892 0.77849,0.77264 1.87892,0.77264 1.10042,0 1.87892,-0.77849 0.58533,-0.58533 0.73166,-1.35212 z"
             style="font-style:normal;font-variant:normal;font-weight:normal;font-stretch:normal;font-family:'Caviar Dreams';-inkscape-font-specification:'Caviar Dreams';fill:#a5a7a4;fill-opacity:1;stroke-width:0.29969028"
             id="path1507"
             inkscape:connector-curvature="0" />
          <path
             d="m 173.23702,161.22694 q -0.15218,-0.75508 -0.72581,-1.3287 -0.77849,-0.7785 -1.87892,-0.7785 -1.10042,0 -1.87891,0.7785 -0.7785,0.77849 -0.7785,1.87891 0,1.10043 0.7785,1.87892 0.77849,0.77849 1.87891,0.77849 1.10043,0 1.87892,-0.77849 0.56777,-0.56777 0.72581,-1.317 z m -0.0117,2.4584 q -0.14634,0.1873 -0.31608,0.3629 -0.94239,0.94239 -2.27695,0.94239 -1.3287,0 -2.27109,-0.94239 -0.94238,-0.94238 -0.94238,-2.27109 0,-1.33455 0.94238,-2.27109 0.94239,-0.94238 2.27109,-0.94238 1.33456,0 2.27695,0.93653 0.18145,0.18731 0.33364,0.39217 v -0.81361 h 0.5268 v 4.46609 q 0,1.29358 -0.91898,2.21256 -0.94238,0.94238 -2.27109,0.94238 -1.33455,0 -2.27694,-0.94238 -0.19316,-0.19316 -0.34535,-0.40388 l 0.55607,-0.19902 q 0.0878,0.10536 0.18731,0.20487 0.77849,0.77849 1.87891,0.77849 1.09458,0 1.87307,-0.77849 0.70825,-0.70825 0.77264,-1.67405 z"
             style="font-style:normal;font-variant:normal;font-weight:normal;font-stretch:normal;font-family:'Caviar Dreams';-inkscape-font-specification:'Caviar Dreams';fill:#a5a7a4;fill-opacity:1;stroke-width:0.29969028"
             id="path1509"
             inkscape:connector-curvature="0" />
          <path
             d="m 176.65864,163.74972 q 0.74338,0.67899 1.76771,0.67899 1.10042,0 1.87892,-0.77849 0.0995,-0.0995 0.1873,-0.20487 l 0.55607,0.19901 q -0.15219,0.21072 -0.34535,0.40388 -0.94238,0.94239 -2.27694,0.94239 -1.32871,0 -2.27109,-0.94239 -0.94239,-0.94238 -0.94239,-2.27694 0,-1.3287 0.94239,-2.27109 0.94238,-0.94239 2.27109,-0.94239 1.1414,0 1.99598,0.68484 0.14048,0.11707 0.28096,0.25755 0.0527,0.0527 0.0995,0.10536 l -0.39803,0.39803 z m 3.35981,-4.10318 q -0.68484,-0.5268 -1.5921,-0.5268 -1.09457,0 -1.87307,0.7785 -0.77849,0.77264 -0.77849,1.87306 0,0.90727 0.5268,1.59211 z"
             style="font-style:normal;font-variant:normal;font-weight:normal;font-stretch:normal;font-family:'Caviar Dreams';-inkscape-font-specification:'Caviar Dreams';fill:#a5a7a4;fill-opacity:1;stroke-width:0.29969028"
             id="path1511"
             inkscape:connector-curvature="0" />
        </g>
        <g
           aria-label="Web Design"
           style="font-style:normal;font-variant:normal;font-weight:normal;font-stretch:normal;font-size:8.70056915px;line-height:1.25;font-family:'Kristen ITC';-inkscape-font-specification:'Kristen ITC';letter-spacing:0.01087571px;word-spacing:0px;writing-mode:lr-tb;fill:#000000;fill-opacity:1;stroke:none;stroke-width:0.21751423"
           id="text1443"
           transform="translate(0.99622052,4.5477084)">
          <path
             d="m 126.72812,177.46957 v -5.77772 h 0.38235 v 5.77772 q 0.0977,0.18268 0.24216,0.32712 0.38235,0.3696 0.90914,0.3696 0.52679,0 0.90914,-0.37385 0.3866,-0.3781 0.3866,-0.90914 v -5.19145 h 0.38235 v 5.22544 q -0.0128,0.66273 -0.48856,1.13855 -0.49281,0.4928 -1.18953,0.4928 -0.69248,0 -1.18528,-0.48855 -0.0892,-0.085 -0.15719,-0.17419 -0.068,0.0892 -0.15719,0.17419 -0.49281,0.48855 -1.18528,0.48855 -0.69673,0 -1.18529,-0.4928 -0.48006,-0.47582 -0.4928,-1.13855 v -5.22544 h 0.38235 v 5.19145 q 0,0.53104 0.38235,0.90914 0.3866,0.37385 0.91339,0.37385 0.52679,0 0.90914,-0.3696 0.14444,-0.14444 0.24215,-0.32712 z"
             style="font-style:normal;font-variant:normal;font-weight:normal;font-stretch:normal;font-family:'Caviar Dreams';-inkscape-font-specification:'Caviar Dreams';fill:#a5a7a4;fill-opacity:1;stroke-width:0.21751423"
             id="path1472"
             inkscape:connector-curvature="0" />
          <path
             d="m 131.60758,177.70747 q 0.53954,0.49281 1.28299,0.49281 0.79869,0 1.36372,-0.56503 0.0722,-0.0722 0.13594,-0.14869 l 0.40359,0.14444 q -0.11045,0.15294 -0.25065,0.29314 -0.68398,0.68398 -1.6526,0.68398 -0.96437,0 -1.64835,-0.68398 -0.68398,-0.68398 -0.68398,-1.6526 0,-0.96437 0.68398,-1.64835 0.68398,-0.68398 1.64835,-0.68398 0.82843,0 1.44868,0.49705 0.10196,0.085 0.20392,0.18693 0.0382,0.0382 0.0722,0.0765 l -0.28888,0.28889 z m 2.43854,-2.97807 q -0.49706,-0.38235 -1.15555,-0.38235 -0.79443,0 -1.35946,0.56503 -0.56503,0.56078 -0.56503,1.35946 0,0.65849 0.38235,1.15555 z"
             style="font-style:normal;font-variant:normal;font-weight:normal;font-stretch:normal;font-family:'Caviar Dreams';-inkscape-font-specification:'Caviar Dreams';fill:#a5a7a4;fill-opacity:1;stroke-width:0.21751423"
             id="path1474"
             inkscape:connector-curvature="0" />
          <path
             d="m 135.82005,171.69185 h 0.38235 v 3.21173 q 0.10621,-0.14444 0.24215,-0.28039 0.68398,-0.68398 1.64835,-0.68398 0.96862,0 1.64835,0.68398 0.68398,0.68398 0.68398,1.6526 0,0.96437 -0.68398,1.64835 -0.67973,0.68398 -1.64835,0.68398 -0.96437,0 -1.64835,-0.68398 -0.13594,-0.13595 -0.24215,-0.28039 v 0.84542 h -0.38235 z m 0.38235,4.1846 v 0.79868 q 0.11045,0.54379 0.52679,0.96012 0.56503,0.56503 1.36371,0.56503 0.79869,0 1.36371,-0.56078 0.56503,-0.56503 0.56503,-1.36371 0,-0.79869 -0.56503,-1.36371 -0.56502,-0.56503 -1.36371,-0.56503 -0.79868,0 -1.36371,0.56503 -0.41634,0.41633 -0.52679,0.96437 z"
             style="font-style:normal;font-variant:normal;font-weight:normal;font-stretch:normal;font-family:'Caviar Dreams';-inkscape-font-specification:'Caviar Dreams';fill:#a5a7a4;fill-opacity:1;stroke-width:0.21751423"
             id="path1476"
             inkscape:connector-curvature="0" />
          <path
             d="m 144.99269,172.09119 v 6.00288 h 0.0297 q 1.5124,0 2.32383,-0.81568 0.9049,-0.90489 0.9049,-2.18788 0,-1.27875 -0.9049,-2.18789 -0.81143,-0.81143 -2.32383,-0.81143 z m 0,-0.39085 h 0.0297 q 1.67809,0 2.59997,0.92614 1.0196,1.02384 1.0196,2.46403 0,1.44443 -1.0196,2.46402 -0.92188,0.92614 -2.59997,0.92614 h -0.0297 v 0.008 h -0.38235 v -6.79732 h 0.38235 z"
             style="font-style:normal;font-variant:normal;font-weight:normal;font-stretch:normal;font-family:'Caviar Dreams';-inkscape-font-specification:'Caviar Dreams';fill:#a5a7a4;fill-opacity:1;stroke-width:0.21751423"
             id="path1478"
             inkscape:connector-curvature="0" />
          <path
             d="m 150.49665,177.70747 q 0.53954,0.49281 1.283,0.49281 0.79868,0 1.36371,-0.56503 0.0722,-0.0722 0.13594,-0.14869 l 0.4036,0.14444 q -0.11046,0.15294 -0.25066,0.29314 -0.68398,0.68398 -1.65259,0.68398 -0.96437,0 -1.64835,-0.68398 -0.68398,-0.68398 -0.68398,-1.6526 0,-0.96437 0.68398,-1.64835 0.68398,-0.68398 1.64835,-0.68398 0.82842,0 1.44867,0.49705 0.10196,0.085 0.20392,0.18693 0.0382,0.0382 0.0722,0.0765 l -0.28889,0.28889 z m 2.43854,-2.97807 q -0.49705,-0.38235 -1.15554,-0.38235 -0.79444,0 -1.35947,0.56503 -0.56503,0.56078 -0.56503,1.35946 0,0.65849 0.38235,1.15555 z"
             style="font-style:normal;font-variant:normal;font-weight:normal;font-stretch:normal;font-family:'Caviar Dreams';-inkscape-font-specification:'Caviar Dreams';fill:#a5a7a4;fill-opacity:1;stroke-width:0.21751423"
             id="path1480"
             inkscape:connector-curvature="0" />
          <path
             d="m 155.85617,176.34376 q -0.48856,-0.26339 -0.67549,-0.45032 -0.29313,-0.29313 -0.29313,-0.70522 0,-0.41634 0.29313,-0.70947 0.29314,-0.29739 0.70523,-0.29739 0.41633,0 0.68822,0.2719 0.2634,0.26764 0.2634,0.60751 v 0.0212 l -0.33137,0.1317 q -0.0425,-0.32287 -0.20392,-0.48431 -0.15719,-0.16144 -0.41633,-0.16144 -0.2549,0 -0.43758,0.18268 -0.18268,0.17843 -0.18268,0.43758 0,0.2549 0.18268,0.43758 0.10621,0.1062 0.45032,0.32287 0.54379,0.29738 0.7732,0.52679 0.3611,0.36536 0.3611,0.87091 0,0.51829 -0.3611,0.88365 -0.36111,0.36111 -0.87516,0.36111 -0.51405,0 -0.87515,-0.36111 -0.36111,-0.36536 -0.36111,-0.79869 l 0.3781,-0.0977 q 0,0.37385 0.25065,0.62451 0.2549,0.25065 0.60751,0.25065 0.35261,0 0.60326,-0.25065 0.2549,-0.25066 0.2549,-0.61176 0,-0.35261 -0.25065,-0.60327 -0.13595,-0.13594 -0.54803,-0.39934 z"
             style="font-style:normal;font-variant:normal;font-weight:normal;font-stretch:normal;font-family:'Caviar Dreams';-inkscape-font-specification:'Caviar Dreams';fill:#a5a7a4;fill-opacity:1;stroke-width:0.21751423"
             id="path1482"
             inkscape:connector-curvature="0" />
          <path
             d="m 158.58597,174.31731 v 4.17186 h -0.38235 v -4.17186 z m -0.19117,-1.47842 q 0.15719,0 0.26764,0.11046 0.11471,0.11046 0.11471,0.26765 0,0.16143 -0.11471,0.27189 -0.11045,0.11045 -0.26764,0.11045 -0.15719,0 -0.2719,-0.11045 -0.11045,-0.11046 -0.11045,-0.27189 0,-0.15719 0.11045,-0.26765 0.11471,-0.11046 0.2719,-0.11046 z"
             style="font-style:normal;font-variant:normal;font-weight:normal;font-stretch:normal;font-family:'Caviar Dreams';-inkscape-font-specification:'Caviar Dreams';fill:#a5a7a4;fill-opacity:1;stroke-width:0.21751423"
             id="path1484"
             inkscape:connector-curvature="0" />
          <path
             d="m 164.06444,175.87645 q -0.11046,-0.54804 -0.52679,-0.96437 -0.56503,-0.56503 -1.36371,-0.56503 -0.79869,0 -1.36372,0.56503 -0.56502,0.56502 -0.56502,1.36371 0,0.79868 0.56502,1.36371 0.56503,0.56503 1.36372,0.56503 0.79868,0 1.36371,-0.56503 0.41209,-0.41209 0.52679,-0.95587 z m -0.008,1.78429 q -0.1062,0.13595 -0.2294,0.2634 -0.68399,0.68398 -1.6526,0.68398 -0.96437,0 -1.64835,-0.68398 -0.68398,-0.68398 -0.68398,-1.64835 0,-0.96862 0.68398,-1.64835 0.68398,-0.68398 1.64835,-0.68398 0.96861,0 1.6526,0.67973 0.13169,0.13595 0.24215,0.28464 v -0.59052 h 0.38235 v 3.24147 q 0,0.93888 -0.66699,1.60587 -0.68398,0.68398 -1.64835,0.68398 -0.96862,0 -1.6526,-0.68398 -0.14019,-0.14019 -0.25065,-0.29313 l 0.40359,-0.14445 q 0.0637,0.0765 0.13595,0.14869 0.56503,0.56503 1.36371,0.56503 0.79444,0 1.35947,-0.56503 0.51404,-0.51404 0.56077,-1.21502 z"
             style="font-style:normal;font-variant:normal;font-weight:normal;font-stretch:normal;font-family:'Caviar Dreams';-inkscape-font-specification:'Caviar Dreams';fill:#a5a7a4;fill-opacity:1;stroke-width:0.21751423"
             id="path1486"
             inkscape:connector-curvature="0" />
          <path
             d="m 166.13575,175.24769 v 3.24148 h -0.38235 v -4.17186 h 0.38235 v 0.26765 q 0.52255,-0.5183 1.21502,-0.5183 0.73921,0 1.20228,0.46307 0.46307,0.46306 0.47581,1.16829 v 2.79115 h -0.38235 V 175.732 q 0,-0.53104 -0.3866,-0.90489 -0.38235,-0.3781 -0.90914,-0.3781 -0.52679,0 -0.90914,0.3696 -0.20817,0.20817 -0.30588,0.42908 z"
             style="font-style:normal;font-variant:normal;font-weight:normal;font-stretch:normal;font-family:'Caviar Dreams';-inkscape-font-specification:'Caviar Dreams';fill:#a5a7a4;fill-opacity:1;stroke-width:0.21751423"
             id="path1488"
             inkscape:connector-curvature="0" />
        </g>
      </g>
    </g>
  </g>
</svg>
